<svg width="334" height="334" viewBox="0 0 334 334" fill="none" xmlns="http://www.w3.org/2000/svg">
<g clip-path="url(#clip0_2009_439)">
<mask id="mask0_2009_439" style="mask-type:luminance" maskUnits="userSpaceOnUse" x="0" y="0" width="334" height="334">
<path d="M334 0H0V334H334V0Z" fill="white"/>
</mask>
<g mask="url(#mask0_2009_439)">
<path fill-rule="evenodd" clip-rule="evenodd" d="M167 56.187C154.932 56.187 145.15 65.9697 145.15 78.0374H88.9626C88.9626 34.9386 123.901 0 167 0C210.099 0 245.037 34.9386 245.037 78.0374C245.037 121.136 210.099 156.075 167 156.075V99.8879C179.067 99.8879 188.85 90.105 188.85 78.0374C188.85 65.9697 179.067 56.187 167 56.187ZM277.813 167C277.813 154.932 268.03 145.15 255.963 145.15V88.9626C299.062 88.9626 334 123.901 334 167C334 210.099 299.062 245.037 255.963 245.037C212.863 245.037 177.925 210.099 177.925 167H234.112C234.112 179.067 243.895 188.85 255.963 188.85C268.03 188.85 277.813 179.067 277.813 167ZM78.0374 188.85C65.9697 188.85 56.187 179.067 56.187 167C56.187 154.932 65.9697 145.15 78.0374 145.15C90.105 145.15 99.8879 154.932 99.8879 167H156.075C156.075 123.901 121.136 88.9626 78.0374 88.9626C34.9386 88.9626 0 123.901 0 167C0 210.099 34.9386 245.037 78.0374 245.037V188.85ZM167 277.813C179.067 277.813 188.85 268.03 188.85 255.963H245.037C245.037 299.062 210.099 334 167 334C123.901 334 88.9626 299.062 88.9626 255.963C88.9626 212.863 123.901 177.925 167 177.925V234.112C154.932 234.112 145.15 243.895 145.15 255.963C145.15 268.03 154.932 277.813 167 277.813Z" fill="url(#paint0_radial_2009_439)"/>
</g>
</g>
<defs>
<radialGradient id="paint0_radial_2009_439" cx="0" cy="0" r="1" gradientUnits="userSpaceOnUse" gradientTransform="translate(167 167) rotate(90) scale(167)">
<stop offset="0.293269" stop-color="#1A2FFB"/>
<stop offset="1" stop-color="#0C1BB4"/>
</radialGradient>
<clipPath id="clip0_2009_439">
<rect width="334" height="334" fill="white"/>
</clipPath>
</defs>
</svg>
