<svg width="636" height="79" viewBox="0 0 636 79" fill="none" xmlns="http://www.w3.org/2000/svg">
<path d="M57.156 77H42.576V69.872C38.904 75.704 33.288 78.512 25.728 78.512C18.06 78.512 11.904 75.92 7.368 70.52C2.832 65.12 0.564 57.992 0.564 48.92C0.564 40.172 2.724 33.152 7.152 27.86C11.58 22.46 17.52 19.868 24.972 19.868C28.428 19.868 31.668 20.516 34.692 22.028C37.716 23.432 40.2 25.484 41.928 28.184V0.103999H57.156V77ZM42.36 49.028C42.36 43.628 41.28 39.524 38.904 36.5C36.528 33.476 33.288 31.964 29.184 31.964C24.972 31.964 21.732 33.476 19.464 36.5C17.088 39.524 16.008 43.628 16.008 49.028C16.008 54.428 17.088 58.64 19.464 61.664C21.84 64.688 25.08 66.308 29.184 66.308C33.396 66.308 36.636 64.796 38.904 61.772C41.28 58.748 42.36 54.536 42.36 49.028ZM121.235 59.72C119.507 65.768 116.267 70.412 111.623 73.652C106.979 77 101.471 78.62 94.9914 78.62C86.4594 78.62 79.5474 76.028 74.3634 70.628C69.1794 65.336 66.5874 58.316 66.5874 49.46C66.5874 40.82 69.1794 33.692 74.4714 28.076C79.6554 22.46 86.3514 19.652 94.5594 19.652C102.983 19.652 109.679 22.568 114.647 28.292C119.615 34.016 122.099 41.792 122.099 51.512V53.024H82.1394C82.1394 57.884 83.3274 61.556 85.5954 64.04C87.8634 66.632 91.1034 67.82 95.2074 67.82C100.607 67.82 104.387 65.12 106.547 59.72H121.235ZM106.439 43.304C106.115 39.632 104.927 36.716 102.875 34.34C100.931 31.964 98.1234 30.776 94.4514 30.776C91.1034 30.776 88.2954 31.964 86.0274 34.124C83.8674 36.392 82.4634 39.416 82.0314 43.304H106.439ZM216.731 77H201.179V43.736C201.179 40.064 200.531 37.256 199.451 35.312C198.263 33.368 195.887 32.288 192.323 32.288C185.195 32.288 181.631 36.824 181.631 45.68V77H166.295V43.088C166.295 39.632 165.647 37.04 164.567 35.096C163.379 33.152 161.111 32.18 157.871 32.18C150.419 32.18 146.747 37.04 146.747 46.76V77H131.411V21.272H145.991V28.94C150.311 22.892 156.251 19.76 163.703 19.76C171.371 19.76 176.663 22.892 179.471 28.94C183.899 22.892 189.947 19.76 197.723 19.76C203.771 19.76 208.523 21.596 211.763 25.16C215.003 28.724 216.731 33.476 216.731 39.524V77ZM280.586 77H264.926C264.494 75.596 264.062 73.76 263.846 71.6C259.202 76.352 253.154 78.62 245.81 78.62C239.654 78.62 234.794 77.216 231.23 74.192C227.774 71.168 225.938 67.064 225.938 61.772C225.938 59.396 226.262 57.344 226.91 55.508C227.558 53.78 228.53 52.268 229.934 50.972C231.338 49.784 232.634 48.812 233.93 47.948C235.226 47.192 236.954 46.544 239.114 46.004C241.382 45.572 243.218 45.14 244.514 44.924C245.918 44.708 247.862 44.384 250.346 44.06C255.746 43.412 259.31 42.656 261.146 41.792C262.982 41.036 263.954 39.524 263.954 37.364C263.954 32.396 260.606 29.912 253.91 29.912C250.346 29.912 247.754 30.56 246.134 31.856C244.406 33.152 243.326 35.312 242.894 38.444H228.53C229.394 25.916 237.926 19.652 254.342 19.652C270.542 19.652 278.642 25.7 278.642 37.796V61.88C278.642 69.008 279.29 73.976 280.586 77ZM263.738 49.892C262.01 50.972 258.338 52.052 252.938 52.916C248.402 53.564 245.486 54.536 244.082 55.616C242.57 56.912 241.706 58.856 241.706 61.232C241.706 63.5 242.462 65.336 243.974 66.632C245.486 67.928 247.538 68.576 250.13 68.576C254.234 68.576 257.582 67.496 260.066 65.336C262.55 63.176 263.738 60.044 263.738 56.156V49.892ZM343.25 77H327.698V44.492C327.698 40.604 327.05 37.58 325.754 35.528C324.458 33.476 321.866 32.396 318.194 32.396C310.094 32.396 306.098 37.364 306.098 47.084V77H290.87V21.272H305.45V29.048C309.986 22.892 316.142 19.76 323.918 19.76C329.858 19.76 334.61 21.488 338.066 24.944C341.522 28.4 343.25 33.368 343.25 39.74V77ZM409.105 77H394.525V69.872C390.853 75.704 385.237 78.512 377.677 78.512C370.009 78.512 363.853 75.92 359.317 70.52C354.781 65.12 352.513 57.992 352.513 48.92C352.513 40.172 354.673 33.152 359.101 27.86C363.529 22.46 369.469 19.868 376.921 19.868C380.377 19.868 383.617 20.516 386.641 22.028C389.665 23.432 392.149 25.484 393.877 28.184V0.103999H409.105V77ZM394.309 49.028C394.309 43.628 393.229 39.524 390.853 36.5C388.477 33.476 385.237 31.964 381.133 31.964C376.921 31.964 373.681 33.476 371.413 36.5C369.037 39.524 367.957 43.628 367.957 49.028C367.957 54.428 369.037 58.64 371.413 61.664C373.789 64.688 377.029 66.308 381.133 66.308C385.345 66.308 388.585 64.796 390.853 61.772C393.229 58.748 394.309 54.536 394.309 49.028Z" fill="black"/>
<path d="M451.477 21.272V31.748H440.137V57.992C440.137 59.612 440.137 60.8 440.245 61.556C440.245 62.312 440.569 63.068 441.001 63.932C441.433 64.688 442.081 65.228 442.945 65.444C443.809 65.66 445.105 65.768 446.833 65.768C448.669 65.768 450.181 65.768 451.477 65.552V77.216C447.697 77.54 444.565 77.648 442.189 77.648C435.493 77.648 430.849 76.568 428.473 74.192C426.097 71.816 424.909 67.28 424.909 60.584V31.64H415.621V21.272H424.909V4.42399H440.137V21.272H451.477ZM511.153 59.72C509.425 65.768 506.185 70.412 501.541 73.652C496.897 77 491.389 78.62 484.909 78.62C476.377 78.62 469.465 76.028 464.281 70.628C459.097 65.336 456.505 58.316 456.505 49.46C456.505 40.82 459.097 33.692 464.389 28.076C469.573 22.46 476.269 19.652 484.477 19.652C492.901 19.652 499.597 22.568 504.565 28.292C509.533 34.016 512.017 41.792 512.017 51.512V53.024H472.057C472.057 57.884 473.245 61.556 475.513 64.04C477.781 66.632 481.021 67.82 485.125 67.82C490.525 67.82 494.305 65.12 496.465 59.72H511.153ZM496.357 43.304C496.033 39.632 494.845 36.716 492.793 34.34C490.849 31.964 488.041 30.776 484.369 30.776C481.021 30.776 478.213 31.964 475.945 34.124C473.785 36.392 472.381 39.416 471.949 43.304H496.357ZM573.925 55.508C572.953 62.744 570.145 68.36 565.393 72.464C560.641 76.46 554.593 78.512 547.249 78.512C538.609 78.512 531.805 75.812 526.621 70.628C521.437 65.336 518.845 58.316 518.845 49.568C518.845 40.604 521.437 33.368 526.621 27.86C531.805 22.46 538.825 19.652 547.465 19.652C554.809 19.652 560.857 21.596 565.609 25.376C570.253 29.156 572.953 34.232 573.601 40.712H558.589C557.401 34.34 553.729 31.1 547.573 31.1C543.361 31.1 540.121 32.72 537.745 35.96C535.369 39.2 534.289 43.628 534.289 49.352C534.289 54.86 535.369 59.18 537.637 62.204C539.905 65.228 543.145 66.74 547.249 66.74C553.945 66.74 557.833 63.068 559.129 55.508H573.925ZM598.033 0.103999V28.832C602.353 22.892 608.293 19.976 615.637 19.976C628.597 19.976 635.185 26.78 635.185 40.604V77.108H619.849V44.276C619.849 40.388 619.093 37.472 617.797 35.528C616.393 33.476 613.801 32.504 610.021 32.504C605.377 32.504 602.245 33.908 600.517 36.932C598.789 39.848 598.033 43.736 598.033 48.596V77H582.913V0.103999H598.033Z" fill="url(#paint0_linear_2201_3628)"/>
<defs>
<linearGradient id="paint0_linear_2201_3628" x1="-3" y1="49.5" x2="641" y2="49.5" gradientUnits="userSpaceOnUse">
<stop offset="0.5625" stop-color="#1A2FFB"/>
<stop offset="1" stop-color="#1021C2"/>
</linearGradient>
</defs>
</svg>
